<svg width="27" height="22" viewBox="0 0 27 22" fill="none" xmlns="http://www.w3.org/2000/svg">
<path id="Delete" d="M22.1592 22H11.9394C11.3545 22 10.8329 21.9455 10.3744 21.8366C9.91601 21.7277 9.4892 21.5487 9.094 21.2997C8.6988 21.0508 8.31151 20.7162 7.93212 20.296L1.41137 13.4101C0.952946 12.9043 0.628884 12.4686 0.43919 12.1029C0.257399 11.7294 0.166504 11.356 0.166504 10.9825C0.166504 10.7335 0.206024 10.4884 0.285063 10.2472C0.364102 10.006 0.494517 9.74925 0.676308 9.47692C0.858098 9.2046 1.10312 8.90504 1.41137 8.57825L7.92027 1.64562C8.29965 1.23324 8.68695 0.906455 9.08214 0.665252C9.47734 0.42405 9.90415 0.252874 10.3626 0.151724C10.8289 0.0505747 11.3545 0 11.9394 0H22.1592C23.4713 0 24.4672 0.334571 25.1469 1.00371C25.8266 1.66508 26.1665 2.63378 26.1665 3.90981V18.2419C26.1665 19.5257 25.8266 20.4711 25.1469 21.078C24.4672 21.6927 23.4713 22 22.1592 22ZM21.9339 19.409C22.4556 19.409 22.8508 19.2806 23.1195 19.0239C23.3962 18.7593 23.5345 18.3586 23.5345 17.8218V4.17825C23.5345 3.64138 23.3962 3.24456 23.1195 2.9878C22.8508 2.72325 22.4556 2.59098 21.9339 2.59098H11.7853C11.398 2.59098 11.0621 2.64156 10.7775 2.74271C10.5009 2.83607 10.2243 3.0267 9.94763 3.31459L3.48616 10.1772C3.20952 10.4729 3.0712 10.7413 3.0712 10.9825C3.0712 11.107 3.09886 11.2354 3.15419 11.3676C3.21742 11.4921 3.32808 11.6322 3.48616 11.7878L9.95948 18.6271C10.2282 18.9149 10.5009 19.1172 10.7775 19.234C11.0621 19.3507 11.4019 19.409 11.7971 19.409H21.9339ZM11.5837 15.8727C11.2676 15.8727 10.9949 15.7637 10.7657 15.5459C10.5444 15.3202 10.4337 15.0479 10.4337 14.7289C10.4337 14.4255 10.5483 14.1609 10.7775 13.9353L13.7415 11.0058L10.7775 8.08806C10.5483 7.86242 10.4337 7.59788 10.4337 7.29443C10.4337 6.97542 10.5444 6.70698 10.7657 6.48912C10.9949 6.27126 11.2676 6.16233 11.5837 6.16233C11.9236 6.16233 12.2042 6.27515 12.4255 6.5008L15.3776 9.4069L18.3653 6.48912C18.5945 6.26348 18.8712 6.15066 19.1952 6.15066C19.5193 6.15066 19.792 6.26348 20.0133 6.48912C20.2346 6.70698 20.3453 6.97153 20.3453 7.28276C20.3453 7.58621 20.2306 7.85075 20.0014 8.07639L17.0375 11.0058L19.9896 13.9236C20.2188 14.157 20.3334 14.4255 20.3334 14.7289C20.3334 15.0479 20.2227 15.3202 20.0014 15.5459C19.7801 15.7637 19.5074 15.8727 19.1834 15.8727C18.8514 15.8727 18.5708 15.7599 18.3416 15.5342L15.3776 12.6281L12.4374 15.5342C12.2161 15.7599 11.9315 15.8727 11.5837 15.8727Z" fill="black"/>
</svg>
