<svg width="13" height="16" viewBox="0 0 13 16" fill="none" xmlns="http://www.w3.org/2000/svg">
<path id="Dropdown" d="M6.5 0C6.79759 0 7.04819 0.139603 7.34578 0.372273L12.6319 4.59913C12.859 4.78526 13 5.05671 13 5.36694C13 5.97964 12.4988 6.41396 11.9428 6.41396C11.6843 6.41396 11.4181 6.30538 11.1675 6.11149L6.5 2.39651L1.8247 6.11149C1.5741 6.30538 1.31566 6.41396 1.0494 6.41396C0.501205 6.41396 0 5.97964 0 5.36694C0 5.05671 0.140964 4.78526 0.368072 4.59913L5.64639 0.380029C5.94398 0.139603 6.19458 0 6.5 0ZM6.5 16C6.19458 16 5.94398 15.8682 5.64639 15.6277L0.368072 11.4086C0.140964 11.2225 0 10.951 0 10.6408C0 10.0281 0.501205 9.59379 1.0494 9.59379C1.31566 9.59379 1.5741 9.69462 1.8247 9.89627L6.5 13.6035L11.1675 9.89627C11.4181 9.69462 11.6843 9.59379 11.9428 9.59379C12.4988 9.59379 13 10.0281 13 10.6408C13 10.951 12.859 11.2225 12.6319 11.4086L7.34578 15.6277C7.04819 15.8682 6.79759 16 6.5 16Z" fill="#3C3C43" fill-opacity="0.6"/>
</svg>
